<svg xmlns="http://www.w3.org/2000/svg" viewBox="0 0 343 172" role="img" aria-label="Laboratório Multiusuário IPPRI · UNESP (vertical)">
<g transform="translate(123.50 0) scale(0.96)"><rect width="100" height="100" rx="22" fill="#7A2E2C"/><polygon points="18.00,18.00 34.00,18.00 18.00,34.00" fill="#FFFFFF"/><polygon points="34.00,18.00 50.00,18.00 34.00,34.00" fill="#FFFFFF"/><polygon points="50.00,18.00 66.00,18.00 50.00,34.00" fill="#FFFFFF"/><polygon points="66.00,18.00 82.00,18.00 66.00,34.00" fill="#FFFFFF"/><polygon points="18.00,34.00 34.00,34.00 18.00,50.00" fill="#FFFFFF"/><polygon points="34.00,34.00 50.00,34.00 34.00,50.00" fill="#FFFFFF"/><polygon points="50.00,34.00 66.00,34.00 50.00,50.00" fill="#FFFFFF"/><polygon points="18.00,50.00 34.00,50.00 18.00,66.00" fill="#FFFFFF"/><polygon points="34.00,50.00 50.00,50.00 34.00,66.00" fill="#FFFFFF"/><polygon points="18.00,66.00 34.00,66.00 18.00,82.00" fill="#FFFFFF"/></g><g fill="#7A2E2C"><path transform="translate(12.41 133) scale(0.02500)" d="M233-702L233-132L457-132L457 0L62 0L62-702"/><path transform="translate(24.34 133) scale(0.02500)" d="M28-280Q28-366 60.500-431Q93-496 149-531Q205-566 274-566Q333-566 377.500-542Q422-518 446-479L446-558L617-558L617 0L446 0L446-79Q421-40 376.500-16Q332 8 273 8Q205 8 149-27.500Q93-63 60.500-128.500Q28-194 28-280M446-279Q446-343 410.500-380Q375-417 324-417Q273-417 237.500-380.500Q202-344 202-280Q202-216 237.500-178.500Q273-141 324-141Q375-141 410.500-178Q446-215 446-279"/><path transform="translate(41.31 133) scale(0.02500)" d="M233-479Q257-518 302-542Q347-566 405-566Q474-566 530-531Q586-496 618.500-431Q651-366 651-280Q651-194 618.500-128.500Q586-63 530-27.500Q474 8 405 8Q346 8 302-15.500Q258-39 233-78L233 0L62 0L62-740L233-740L233-479M477-280Q477-344 441.500-380.500Q406-417 354-417Q303-417 267.500-380Q232-343 232-279Q232-215 267.500-178Q303-141 354-141Q405-141 441-178.500Q477-216 477-280"/><path transform="translate(58.29 133) scale(0.02500)" d="M316 8Q234 8 168.500-27Q103-62 65.500-127Q28-192 28-279Q28-365 66-430.500Q104-496 170-531Q236-566 318-566Q400-566 466-531Q532-496 570-430.500Q608-365 608-279Q608-193 569.500-127.500Q531-62 464.500-27Q398 8 316 8M316-140Q365-140 399.500-176Q434-212 434-279Q434-346 400.500-382Q367-418 318-418Q268-418 235-382.500Q202-347 202-279Q202-212 234.500-176Q267-140 316-140"/><path transform="translate(74.21 133) scale(0.02500)" d="M233-465Q263-511 308-537.500Q353-564 408-564L408-383L361-383Q297-383 265-355.500Q233-328 233-259L233 0L62 0L62-558L233-558"/><path transform="translate(84.91 133) scale(0.02500)" d="M28-280Q28-366 60.500-431Q93-496 149-531Q205-566 274-566Q333-566 377.500-542Q422-518 446-479L446-558L617-558L617 0L446 0L446-79Q421-40 376.500-16Q332 8 273 8Q205 8 149-27.500Q93-63 60.500-128.500Q28-194 28-280M446-279Q446-343 410.500-380Q375-417 324-417Q273-417 237.500-380.500Q202-344 202-280Q202-216 237.500-178.500Q273-141 324-141Q375-141 410.500-178Q446-215 446-279"/><path transform="translate(101.89 133) scale(0.02500)" d="M312-145L373-145L373 0L286 0Q193 0 141-45.500Q89-91 89-194L89-416L21-416L21-558L89-558L89-694L260-694L260-558L372-558L372-416L260-416L260-192Q260-167 272-156Q284-145 312-145"/><path transform="translate(112.04 133) scale(0.02500)" d="M316 8Q234 8 168.500-27Q103-62 65.500-127Q28-192 28-279Q28-365 66-430.500Q104-496 170-531Q236-566 318-566Q400-566 466-531Q532-496 570-430.500Q608-365 608-279Q608-193 569.500-127.500Q531-62 464.500-27Q398 8 316 8M316-140Q365-140 399.500-176Q434-212 434-279Q434-346 400.500-382Q367-418 318-418Q268-418 235-382.500Q202-347 202-279Q202-212 234.500-176Q267-140 316-140M448-834L448-701L207-600L207-718"/><path transform="translate(127.96 133) scale(0.02500)" d="M233-465Q263-511 308-537.500Q353-564 408-564L408-383L361-383Q297-383 265-355.500Q233-328 233-259L233 0L62 0L62-558L233-558"/><path transform="translate(138.66 133) scale(0.02500)" d="M148-616Q103-616 74.500-642.500Q46-669 46-708Q46-748 74.500-774.500Q103-801 148-801Q192-801 220.500-774.500Q249-748 249-708Q249-669 220.500-642.500Q192-616 148-616M62-558L233-558L233 0L62 0"/><path transform="translate(146.04 133) scale(0.02500)" d="M316 8Q234 8 168.500-27Q103-62 65.500-127Q28-192 28-279Q28-365 66-430.500Q104-496 170-531Q236-566 318-566Q400-566 466-531Q532-496 570-430.500Q608-365 608-279Q608-193 569.500-127.500Q531-62 464.500-27Q398 8 316 8M316-140Q365-140 399.500-176Q434-212 434-279Q434-346 400.500-382Q367-418 318-418Q268-418 235-382.500Q202-347 202-279Q202-212 234.500-176Q267-140 316-140"/><path transform="translate(167.26 133) scale(0.02500)" d="M656-702L857-702L857 0L686 0L686-421L529 0L391 0L233-422L233 0L62 0L62-702L264-702L461-216"/><path transform="translate(190.21 133) scale(0.02500)" d="M442-558L613-558L613 0L442 0L442-76Q416-39 371.500-16.500Q327 6 273 6Q209 6 160-22.500Q111-51 84-105Q57-159 57-232L57-558L227-558L227-255Q227-199 256-168Q285-137 334-137Q384-137 413-168Q442-199 442-255"/><path transform="translate(207.06 133) scale(0.02500)" d="M62-740L233-740L233 0L62 0"/><path transform="translate(214.44 133) scale(0.02500)" d="M312-145L373-145L373 0L286 0Q193 0 141-45.500Q89-91 89-194L89-416L21-416L21-558L89-558L89-694L260-694L260-558L372-558L372-416L260-416L260-192Q260-167 272-156Q284-145 312-145"/><path transform="translate(224.59 133) scale(0.02500)" d="M148-616Q103-616 74.500-642.500Q46-669 46-708Q46-748 74.500-774.500Q103-801 148-801Q192-801 220.500-774.500Q249-748 249-708Q249-669 220.500-642.500Q192-616 148-616M62-558L233-558L233 0L62 0"/><path transform="translate(231.96 133) scale(0.02500)" d="M442-558L613-558L613 0L442 0L442-76Q416-39 371.500-16.500Q327 6 273 6Q209 6 160-22.500Q111-51 84-105Q57-159 57-232L57-558L227-558L227-255Q227-199 256-168Q285-137 334-137Q384-137 413-168Q442-199 442-255"/><path transform="translate(248.81 133) scale(0.02500)" d="M289 8Q216 8 159-17Q102-42 69-85.500Q36-129 32-183L201-183Q204-154 228-136Q252-118 287-118Q319-118 336.500-130.500Q354-143 354-163Q354-187 329-198.500Q304-210 248-224Q188-238 148-253.500Q108-269 79-302.500Q50-336 50-393Q50-441 76.500-480.500Q103-520 154.500-543Q206-566 277-566Q382-566 442.500-514Q503-462 512-376L354-376Q350-405 328.500-422Q307-439 272-439Q242-439 226-427.500Q210-416 210-396Q210-372 235.500-360Q261-348 315-336Q377-320 416-304.500Q455-289 484.500-254.500Q514-220 515-162Q515-113 487.500-74.500Q460-36 408.500-14Q357 8 289 8"/><path transform="translate(262.76 133) scale(0.02500)" d="M442-558L613-558L613 0L442 0L442-76Q416-39 371.500-16.500Q327 6 273 6Q209 6 160-22.500Q111-51 84-105Q57-159 57-232L57-558L227-558L227-255Q227-199 256-168Q285-137 334-137Q384-137 413-168Q442-199 442-255"/><path transform="translate(279.61 133) scale(0.02500)" d="M28-280Q28-366 60.500-431Q93-496 149-531Q205-566 274-566Q333-566 377.500-542Q422-518 446-479L446-558L617-558L617 0L446 0L446-79Q421-40 376.500-16Q332 8 273 8Q205 8 149-27.500Q93-63 60.500-128.500Q28-194 28-280M446-279Q446-343 410.500-380Q375-417 324-417Q273-417 237.500-380.500Q202-344 202-280Q202-216 237.500-178.500Q273-141 324-141Q375-141 410.500-178Q446-215 446-279M459-830L459-697L218-596L218-714"/><path transform="translate(296.59 133) scale(0.02500)" d="M233-465Q263-511 308-537.500Q353-564 408-564L408-383L361-383Q297-383 265-355.500Q233-328 233-259L233 0L62 0L62-558L233-558"/><path transform="translate(307.29 133) scale(0.02500)" d="M148-616Q103-616 74.500-642.500Q46-669 46-708Q46-748 74.500-774.500Q103-801 148-801Q192-801 220.500-774.500Q249-748 249-708Q249-669 220.500-642.500Q192-616 148-616M62-558L233-558L233 0L62 0"/><path transform="translate(314.66 133) scale(0.02500)" d="M316 8Q234 8 168.500-27Q103-62 65.500-127Q28-192 28-279Q28-365 66-430.500Q104-496 170-531Q236-566 318-566Q400-566 466-531Q532-496 570-430.500Q608-365 608-279Q608-193 569.500-127.500Q531-62 464.500-27Q398 8 316 8M316-140Q365-140 399.500-176Q434-212 434-279Q434-346 400.500-382Q367-418 318-418Q268-418 235-382.500Q202-347 202-279Q202-212 234.500-176Q267-140 316-140"/></g><g fill="#7A2E2C"><path transform="translate(112.76 158) scale(0.01400)" d="M75-695L189-695L189 0L75 0"/><path transform="translate(118.96 158) scale(0.01400)" d="M561-488Q561-435 536-388Q511-341 456-311.500Q401-282 315-282L189-282L189 0L75 0L75-695L315-695Q395-695 450.500-667.500Q506-640 533.500-593Q561-546 561-488M315-375Q380-375 412-404.500Q444-434 444-488Q444-602 315-602L189-602L189-375"/><path transform="translate(129.79 158) scale(0.01400)" d="M561-488Q561-435 536-388Q511-341 456-311.500Q401-282 315-282L189-282L189 0L75 0L75-695L315-695Q395-695 450.500-667.500Q506-640 533.500-593Q561-546 561-488M315-375Q380-375 412-404.500Q444-434 444-488Q444-602 315-602L189-602L189-375"/><path transform="translate(140.62 158) scale(0.01400)" d="M572 0L436 0L276-278L189-278L189 0L75 0L75-695L315-695Q395-695 450.500-667Q506-639 533.500-592Q561-545 561-487Q561-419 521.500-363.500Q482-308 400-288L572 0M189-602L189-369L315-369Q379-369 411.500-401Q444-433 444-487Q444-541 412-571.500Q380-602 315-602"/><path transform="translate(151.97 158) scale(0.01400)" d="M75-695L189-695L189 0L75 0"/><path transform="translate(164.30 158) scale(0.01400)" d="M125-262Q94-262 73-283Q52-304 52-335Q52-366 73-387Q94-408 125-408Q155-408 176-387Q197-366 197-335Q197-304 176-283Q155-262 125-262"/><path transform="translate(176.36 158) scale(0.01400)" d="M74-695L188-695L188-252Q188-173 229.500-133Q271-93 345-93Q420-93 461.500-133Q503-173 503-252L503-695L617-695L617-254Q617-169 580-110Q543-51 481-22Q419 7 344 7Q269 7 207.500-22Q146-51 110-110Q74-169 74-254"/><path transform="translate(188.52 158) scale(0.01400)" d="M646-696L646 0L532 0L189-519L189 0L75 0L75-696L189-696L532-178L532-696"/><path transform="translate(201.11 158) scale(0.01400)" d="M459-603L189-603L189-399L429-399L429-306L189-306L189-93L459-93L459 0L75 0L75-696L459-696"/><path transform="translate(210.95 158) scale(0.01400)" d="M304 7Q234 7 178-17.500Q122-42 90-87Q58-132 58-192L180-192Q184-147 215.500-118Q247-89 304-89Q363-89 396-117.500Q429-146 429-191Q429-226 408.500-248Q388-270 357.500-282Q327-294 273-308Q205-326 162.500-344.500Q120-363 90-402Q60-441 60-506Q60-566 90-611Q120-656 174-680Q228-704 299-704Q400-704 464.500-653.500Q529-603 536-515L410-515Q407-553 374-580Q341-607 287-607Q238-607 207-582Q176-557 176-510Q176-478 195.500-457.500Q215-437 245-425Q275-413 327-399Q396-380 439.500-361Q483-342 513.500-302.500Q544-263 544-197Q544-144 515.500-97Q487-50 432.500-21.500Q378 7 304 7"/><path transform="translate(221.91 158) scale(0.01400)" d="M561-488Q561-435 536-388Q511-341 456-311.500Q401-282 315-282L189-282L189 0L75 0L75-695L315-695Q395-695 450.500-667.500Q506-640 533.500-593Q561-546 561-488M315-375Q380-375 412-404.500Q444-434 444-488Q444-602 315-602L189-602L189-375"/></g>
</svg>
